<svg xmlns="http://www.w3.org/2000/svg" xmlns:xlink="http://www.w3.org/1999/xlink" viewBox="0 0 400 400" width="400" height="400">
  <svg xmlns="http://www.w3.org/2000/svg" xmlns:xlink="http://www.w3.org/1999/xlink" viewBox="0 0 400 400" width="380" height="380" x="10" y="10">
<path fill="#8DB5C2" d="M200,0C89.5,0,0,89.5,0,200c0,110.4,89.5,200,200,200c110.4,0,200-89.5,200-200S310.5,0,200,0z"/>
<path fill="#E8F3F5" d="M200,19.5c-99.7,0-180.5,80.8-180.5,180.5S100.3,380.5,200,380.5S380.5,299.7,380.5,200S299.7,19.5,200,19.5z   M59.2,243c0,2.7-2.2,4.9-4.9,4.9s-4.9-2.2-4.9-4.9l0,0l0,0c0-2.7,2.2-4.9,4.9-4.9S59.2,240.3,59.2,243  C59.2,242.9,59.2,242.9,59.2,243C59.2,242.9,59.2,242.9,59.2,243z M74.7,277.9c0,2.7-2.2,4.9-4.9,4.9s-4.9-2.2-4.9-4.9l0,0l0,0  c0-2.7,2.2-4.9,4.9-4.9S74.7,275.2,74.7,277.9L74.7,277.9L74.7,277.9z M97.4,307.3c0,2.6-2.1,4.6-4.7,4.6c-1,0-1.9-0.3-2.6-0.8  c-1.2-0.8-2.1-2.3-2.1-3.9l0,0l0,0c0-0.6,0.1-1.3,0.4-1.8c0.1-0.3,0.3-0.5,0.4-0.8c0.3-0.5,0.8-0.9,1.3-1.3c0.7-0.5,1.6-0.8,2.6-0.8  c1.9,0,3.6,1.2,4.3,2.8C97.2,306,97.4,306.6,97.4,307.3L97.4,307.3L97.4,307.3z M127.7,332.8c-0.2,0.6-0.6,1.1-1,1.5  c-0.9,0.9-2.1,1.4-3.4,1.4c-0.7,0-1.3-0.1-1.9-0.4s-1.1-0.6-1.5-1c-0.9-0.9-1.4-2.1-1.4-3.4s0.5-2.6,1.4-3.4c0.4-0.4,1-0.8,1.5-1  c0.6-0.2,1.2-0.4,1.9-0.4c2.7,0,4.9,2.2,4.9,4.9C128.1,331.6,128,332.2,127.7,332.8z M160.9,345.2c0,2.7-2.2,4.9-4.9,4.9  s-4.8-2.2-4.8-4.9l0,0l0,0c0-2.7,2.2-4.9,4.8-4.9C158.7,340.3,160.9,342.5,160.9,345.2L160.9,345.2L160.9,345.2z M246.4,57.8  c-0.9,0.9-2.1,1.4-3.4,1.4c-2.7,0-4.9-2.2-4.9-4.9c0-1.3,0.5-2.6,1.4-3.4c0.9-0.9,2.1-1.4,3.4-1.4c2.7,0,4.9,2.2,4.9,4.9  C247.8,55.7,247.3,56.9,246.4,57.8z M282.8,69.8c0,2.7-2.2,4.9-4.8,4.9c-2.7,0-4.9-2.2-4.9-4.9l0,0l0,0c0-2.7,2.2-4.9,4.9-4.9  C280.6,64.9,282.8,67.1,282.8,69.8L282.8,69.8L282.8,69.8z M311.9,92.7c0,2.6-2.1,4.7-4.6,4.7s-4.7-2.1-4.7-4.7l0,0l0,0  c0-2.6,2.1-4.6,4.7-4.6S311.9,90.2,311.9,92.7L311.9,92.7L311.9,92.7z M330.9,128.1c-2.7,0-4.9-2.2-4.9-4.8c0-1.3,0.5-2.6,1.4-3.4  c0.9-0.9,2.1-1.4,3.4-1.4c2.7,0,4.9,2.2,4.9,4.9c0,1-0.3,1.9-0.8,2.7C334.1,127.3,332.6,128.1,330.9,128.1z M347.9,160.1  c-0.8,0.5-1.7,0.8-2.7,0.8c-2.7,0-4.9-2.2-4.9-4.9s2.2-4.8,4.9-4.8s4.8,2.2,4.8,4.8c0,0.3,0,0.7-0.1,1  C349.7,158.3,349,159.4,347.9,160.1z"/>
<path fill="#8DB5C2" d="M200,375.8C103,375.8,24.2,297,24.2,200S103,24.2,200,24.2S375.8,103.1,375.8,200S297,375.8,200,375.8z   M200,29.1c-94.2,0-170.9,76.7-170.9,170.9S105.8,370.9,200,370.9S370.9,294.3,370.9,200S294.2,29.1,200,29.1z"/>
</svg>
  <svg viewBox="0 0 80 80" width="234" height="234" x="88" y="78">
<path fill-rule="evenodd" clip-rule="evenodd" fill="#e2d821" d="M79.949,32.473c0.233,1.302-0.349,2.364-1.401,3.362  c-4.687,4.443-9.289,8.974-13.982,13.413c-1.264,1.194-1.667,2.244-1.275,4.135c1.177,5.664,1.929,11.417,2.855,17.134  c0.138,0.866,0.442,1.718,0.478,2.583c0.149,3.584-2.915,5.98-6.323,4.976c-0.76-0.226-1.52-0.495-2.215-0.861  c-5.236-2.766-10.451-5.565-15.677-8.349c-0.468-0.25-0.991-0.411-1.422-0.709c-0.691-0.477-1.277-0.336-1.963,0.029  c-5.142,2.749-10.292,5.484-15.458,8.188c-1.247,0.652-2.525,1.297-3.862,1.708c-3.265,1.006-6.347-1.356-6.247-4.789  c0.042-1.484,0.318-2.969,0.581-4.437c0.99-5.523,2.014-11.041,3.036-16.556c0.159-0.854-0.032-1.538-0.68-2.155  c-4.032-3.847-8.044-7.714-12.059-11.579c-0.894-0.861-1.734-1.778-2.661-2.602c-1.764-1.567-1.973-3.634-1.359-5.608  c0.58-1.863,2.227-2.848,4.232-3.121c5.13-0.699,10.256-1.427,15.383-2.154c1.218-0.172,2.434-0.358,3.642-0.58  c1.606-0.294,2.75-0.989,3.528-2.645c2.672-5.685,5.559-11.27,8.362-16.893c0.974-1.951,2.373-3.239,4.716-3.276  c1.782-0.03,3.056,0.707,3.888,2.23c0.554,1.008,1.047,2.05,1.561,3.079c2.449,4.91,5.015,9.766,7.286,14.756  c0.867,1.905,2.192,2.559,4.001,2.804c5.391,0.733,10.786,1.448,16.177,2.188c1.044,0.144,2.099,0.289,3.105,0.584  C78.389,27.973,80.274,29.514,79.949,32.473z"/>
</svg>
</svg>
